<svg xmlns="http://www.w3.org/2000/svg" width="512" height="512" viewBox="0 0 512 512">
    <path fill="#DE2F5F" fill-rule="evenodd" d="M364.999 392.011c-20.007 0-37.99-9.228-50.373-23.883l.01-.014c-2.283-2.719-4.387-5.61-6.233-8.678h-.037c-6.886-11.203-10.895-24.565-10.895-38.925 0-23.25 10.498-43.908 26.73-56.94 11.329-9.126 25.456-14.54 40.798-14.54 37.307 0 67.546 32.008 67.546 71.48 0 39.493-30.239 71.5-67.546 71.5zM512 320.12c0-75.426-56.417-136.546-126.01-136.546-9.837 0-19.4 1.268-28.582 3.577L451.596 48h-83.183l-69.931 103.328-46.018 71.325s-33.5 52.244-32.756 96.697l.04-.007c-.083 1.8-.17 3.596-.182 5.41v.819c0 16.375 2.995 32.086 8.514 46.666.003.01.01.025.014.04-16.625 16.285-39.018 26.26-63.636 26.26-43.734 0-80.385-31.444-90.284-73.767h121.58v-.155c.019-1.76.081-3.459.14-5.003-.26-16.785 3.472-34.195 8.611-50.043H76.833c12.759-37.557 47.167-64.485 87.625-64.485 22.09 0 42.389 8.031 58.344 21.436l35.877-57.194c-26.693-18.426-59.175-29.213-94.22-29.213C73.614 140.114 0 212.61 0 302.044 0 391.502 73.615 464 164.458 464c39.051 0 74.944-13.423 103.161-35.85 25.931 22.258 60.368 35.828 98.153 35.828 80.765 0 146.228-61.963 146.228-138.406 0-1.836-.062-3.653-.139-5.453H512z"/>
</svg>
